<?xml version="1.0" encoding="utf-8"?>
<!-- Generator: Adobe Illustrator 16.0.4, SVG Export Plug-In . SVG Version: 6.00 Build 0)  -->
<!DOCTYPE svg PUBLIC "-//W3C//DTD SVG 1.1 Tiny//EN" "http://www.w3.org/Graphics/SVG/1.1/DTD/svg11-tiny.dtd">
<svg version="1.1" baseProfile="tiny" xmlns="http://www.w3.org/2000/svg" xmlns:xlink="http://www.w3.org/1999/xlink" x="0px"
	 y="0px" width="114px" height="122.7px" viewBox="0 0 114 122.7" xml:space="preserve">
<g id="Background" display="none">
</g>
<g id="Guides">
</g>
<g id="Grid" display="none">
</g>
<g id="Layer_4">
</g>
<g id="Layer_5">
</g>
<g id="Layer_6">
	<g>
		<rect x="27.8" y="1.7" fill="#052855" width="12.6" height="12.6"/>
		<rect x="49.7" y="1.7" fill="#052855" width="12.6" height="12.6"/>
		<rect x="27.8" y="23.5" fill="#052855" width="12.6" height="12.6"/>
		<rect x="49.7" y="23.5" fill="#052855" width="12.6" height="12.6"/>
		<rect x="27.8" y="45.3" fill="#052855" width="12.6" height="12.6"/>
		<rect x="49.7" y="45.3" fill="#052855" width="12.6" height="12.6"/>
		<rect x="71.8" y="23.5" fill="#052855" width="12.6" height="12.6"/>
		<rect x="71.8" y="45.3" fill="#052855" width="12.6" height="12.6"/>
		<path fill="#C41D2C" d="M84.6,8.1c0,3.7-3,6.7-6.7,6.7c-3.7,0-6.7-3-6.7-6.7c0-3.7,3-6.7,6.7-6.7C81.6,1.4,84.6,4.4,84.6,8.1"/>
		<path fill="#052855" d="M100.9,79.6l0.7-2.6h4.6c0,0,6.2,0,6.2,6.5c0,6.1-6.1,5.9-6.1,5.9h-10l0.7-2.7h8.6c0,0,3.3,0,3.3-3.4
			c0-3.4-3-3.7-3-3.7H100.9z"/>
		<path fill="#052855" d="M88.7,80l3.4-1.4v6.7c0,0-0.3,4-5.4,4.4H25.4c0,0-5.2,0.1-5.2-5.2V71.6l3.5-1.4v13.7c0,0-0.2,2.7,2.5,3
			h60.2c0,0,2-0.1,2.2-1.7V80z"/>
		<rect x="81" y="91.4" fill="#052855" width="3" height="3"/>
		<rect x="85.6" y="91.4" fill="#052855" width="3" height="3"/>
		<path fill="#052855" d="M15.4,78.5v11.2c0,0,0,4.7-5.6,4.7H1.5L3,91.5h7c0,0,2-0.2,2-1.9v-9.5L15.4,78.5z"/>
		<polygon fill="#052855" points="22.6,99.1 22.6,111.7 35.8,111.7 35.8,108.8 26.1,108.8 26.1,106.5 31.7,106.5 31.7,103.7 
			26.2,103.7 26.2,101.7 35.8,101.7 35.8,99.1 		"/>
		<polygon fill="#052855" points="39,99 43.5,99 47.5,103.5 51.6,99.1 55.8,99.1 49.1,105.9 49.1,111.6 45.6,111.6 45.6,106.1 		"/>
		<path fill="#052855" d="M10.4,99c-1.4,0-9,0-9,0v12.6H10c0,0,6.6-0.3,6.6-6C16.7,99.9,11.8,99,10.4,99 M9.6,108.7
			c-1.6,0-4.8,0.1-4.8,0.1v-7h5.3c0,0,3.1,0.2,3.1,3.4C13.2,108.3,11.2,108.7,9.6,108.7"/>
		<path fill="#052855" d="M63.2,99.1l-7.2,12.6h3.5l1.4-2.7h7.2l1.6,2.7h3.9l-7.3-12.6H63.2z M62.6,106.2l2.1-3.7l2,3.7H62.6z"/>
		<path fill="#052855" d="M83.5,99.1l-7.2,12.6h3.5l1.4-2.7h7.2l1.6,2.7h3.9l-7.3-12.6H83.5z M82.8,106.2l2.1-3.7l2,3.7H82.8z"/>
		<path fill="#052855" d="M107.4,107.2c0,0,4.4,0.1,4.4-4.2c0,0-0.1-3.9-3.6-3.9h-11v12.6h3.4v-4.5h2.4l4.8,4.5h5L107.4,107.2z
			 M100.6,104.5v-2.8h6.6c0,0,1.3,0.2,1.3,1.3c0,1.4-1.3,1.5-1.3,1.5H100.6z"/>
		<polygon fill="#C41D2C" points="5.2,116.2 2.6,116.2 2.6,117.7 4.6,117.7 4.6,118.7 2.6,118.7 2.6,121.3 1.4,121.3 1.4,115.2 
			5.2,115.2 		"/>
		<path fill="#C41D2C" d="M10,121.3H8.7l-0.4-1.5H6.5l-0.4,1.5H4.9l1.7-6.1h1.6L10,121.3z M7.4,116.2L7.4,116.2l-0.7,2.6h1.3
			L7.4,116.2z"/>
		<path fill="#C41D2C" d="M15,119.3c-0.2,1.3-1,2-2.3,2c-1.7,0-2.5-1.6-2.5-3.1c0-1.5,0.8-3.1,2.5-3.1c1.3,0,2.1,0.7,2.3,2l-1.2,0.2
			c-0.1-0.6-0.4-1.2-1.1-1.2c-1.1,0-1.3,1.4-1.3,2.2c0,0.8,0.2,2.2,1.3,2.2c0.7,0,1-0.6,1.1-1.2L15,119.3z"/>
		<rect x="15.7" y="115.2" fill="#C41D2C" width="1.2" height="6.1"/>
		<polygon fill="#C41D2C" points="19,120.2 21.6,120.2 21.6,121.3 17.8,121.3 17.8,115.2 19,115.2 		"/>
		<rect x="22.2" y="115.2" fill="#C41D2C" width="1.2" height="6.1"/>
		<polygon fill="#C41D2C" points="28.3,116.2 26.7,116.2 26.7,121.3 25.5,121.3 25.5,116.2 23.9,116.2 23.9,115.2 28.3,115.2 		"/>
		<rect x="28.7" y="115.2" fill="#C41D2C" width="1.2" height="6.1"/>
		<polygon fill="#C41D2C" points="34.6,116.2 32,116.2 32,117.7 34.2,117.7 34.2,118.7 32,118.7 32,120.2 34.8,120.2 34.8,121.3 
			30.8,121.3 30.8,115.2 34.6,115.2 		"/>
		<path fill="#C41D2C" d="M38.4,117c-0.1-0.4-0.4-0.9-0.8-0.9c-0.4,0-0.7,0.3-0.7,0.7c0,1.2,2.9,0.4,2.9,2.7c0,0.7-0.6,1.9-2.1,1.9
			c-1.2,0-2-0.6-2.2-1.8l1.2-0.2c0.1,0.5,0.4,0.9,1,0.9c0.5,0,0.9-0.3,0.9-0.8c0-1.2-2.9-0.5-2.9-2.6c0-1.1,0.9-1.9,2-1.9
			c1,0,1.8,0.7,1.9,1.7L38.4,117z"/>
		<polygon fill="#C41D2C" points="46.6,115.2 48.6,115.2 48.6,121.3 47.4,121.3 47.4,116.4 47.4,116.4 46.2,121.3 45.1,121.3 
			44,116.4 44,116.4 44,121.3 42.8,121.3 42.8,115.2 44.8,115.2 45.7,119.5 45.7,119.5 		"/>
		<path fill="#C41D2C" d="M54.1,121.3h-1.2l-0.4-1.5h-1.8l-0.4,1.5H49l1.7-6.1h1.6L54.1,121.3z M51.5,116.2L51.5,116.2l-0.7,2.6h1.3
			L51.5,116.2z"/>
		<polygon fill="#C41D2C" points="56.2,115.2 58,119.2 58,119.2 58,115.2 59.3,115.2 59.3,121.3 58,121.3 55.7,116.4 55.6,116.4 
			55.6,121.3 54.4,121.3 54.4,115.2 		"/>
		<path fill="#C41D2C" d="M64.7,121.3h-1.2l-0.4-1.5h-1.8l-0.4,1.5h-1.2l1.7-6.1H63L64.7,121.3z M62.2,116.2L62.2,116.2l-0.7,2.6
			h1.3L62.2,116.2z"/>
		<path fill="#C41D2C" d="M67.5,119.2v-1h2.2v3.1h-0.9l-0.1-0.4c-0.3,0.4-0.9,0.5-1.3,0.5c-1.7,0-2.5-1.6-2.5-3.1
			c0-1.5,0.8-3.1,2.5-3.1c1.2,0,2.1,0.7,2.3,1.9l-1.1,0.2c-0.1-0.6-0.4-1.1-1.2-1.1c-1,0-1.3,1.4-1.3,2.2c0,0.8,0.2,2.2,1.3,2.2
			c0.9,0,1.1-0.5,1.1-1.2H67.5z"/>
		<polygon fill="#C41D2C" points="74.3,116.2 71.7,116.2 71.7,117.7 73.9,117.7 73.9,118.7 71.7,118.7 71.7,120.2 74.5,120.2 
			74.5,121.3 70.5,121.3 70.5,115.2 74.3,115.2 		"/>
		<polygon fill="#C41D2C" points="79,115.2 81,115.2 81,121.3 79.8,121.3 79.8,116.4 79.8,116.4 78.7,121.3 77.6,121.3 76.5,116.4 
			76.4,116.4 76.4,121.3 75.2,121.3 75.2,115.2 77.2,115.2 78.1,119.5 78.1,119.5 		"/>
		<polygon fill="#C41D2C" points="85.7,116.2 83.1,116.2 83.1,117.7 85.2,117.7 85.2,118.7 83.1,118.7 83.1,120.2 85.8,120.2 
			85.8,121.3 81.9,121.3 81.9,115.2 85.7,115.2 		"/>
		<polygon fill="#C41D2C" points="88.4,115.2 90.2,119.2 90.2,119.2 90.2,115.2 91.4,115.2 91.4,121.3 90.1,121.3 87.8,116.4 
			87.8,116.4 87.8,121.3 86.6,121.3 86.6,115.2 		"/>
		<polygon fill="#C41D2C" points="96.3,116.2 94.7,116.2 94.7,121.3 93.5,121.3 93.5,116.2 91.9,116.2 91.9,115.2 96.3,115.2 		"/>
		<polygon fill="#C41D2C" points="100.4,120.2 103,120.2 103,121.3 99.2,121.3 99.2,115.2 100.4,115.2 		"/>
		<polygon fill="#C41D2C" points="104.8,120.2 107.3,120.2 107.3,121.3 103.6,121.3 103.6,115.2 104.8,115.2 		"/>
		<path fill="#C41D2C" d="M112.6,119.3c-0.2,1.3-1,2-2.3,2c-1.7,0-2.5-1.6-2.5-3.1c0-1.5,0.8-3.1,2.5-3.1c1.3,0,2.1,0.7,2.3,2
			l-1.2,0.2c-0.1-0.6-0.4-1.2-1.1-1.2c-1,0-1.3,1.4-1.3,2.2c0,0.8,0.2,2.2,1.3,2.2c0.7,0,1-0.6,1.1-1.2L112.6,119.3z"/>
	</g>
</g>
<g id="Layer_7">
</g>
<g id="Layer_8">
</g>
<g id="Layer_9">
</g>
<g id="Layer_10">
</g>
</svg>

