<?xml version="1.0" encoding="utf-8"?>
<!-- Generator: Adobe Illustrator 16.0.0, SVG Export Plug-In . SVG Version: 6.00 Build 0)  -->
<!DOCTYPE svg PUBLIC "-//W3C//DTD SVG 1.1//EN" "http://www.w3.org/Graphics/SVG/1.1/DTD/svg11.dtd">
<svg version="1.1" id="Layer_1" xmlns="http://www.w3.org/2000/svg" xmlns:xlink="http://www.w3.org/1999/xlink" x="0px" y="0px"
	 width="193.977px" height="58.614px" viewBox="-79.009 -110.926 193.977 58.614"
	 enable-background="new -79.009 -110.926 193.977 58.614" xml:space="preserve">
<g id="Background" display="none">
</g>
<g id="Guides">
</g>
<g id="Grid" display="none">
</g>
<g id="Layer_4">
</g>
<g id="Layer_5">
</g>
<g id="Layer_6">
</g>
<g id="Layer_7">
</g>
<g id="Layer_8">
</g>
<g id="Layer_9">
</g>
<g id="Layer_10">
	<g>
		<rect x="63.496" y="-103.232" fill="#052855" width="11.357" height="11.356"/>
		<rect x="83.28" y="-103.232" fill="#052855" width="11.539" height="11.356"/>
		<rect x="63.496" y="-83.45" fill="#052855" width="11.357" height="11.539"/>
		<rect x="83.28" y="-83.45" fill="#052855" width="11.539" height="11.539"/>
		<rect x="63.496" y="-63.669" fill="#052855" width="11.357" height="11.357"/>
		<rect x="83.28" y="-63.669" fill="#052855" width="11.539" height="11.357"/>
		<rect x="103.244" y="-83.45" fill="#052855" width="11.539" height="11.539"/>
		<rect x="103.244" y="-63.669" fill="#052855" width="11.539" height="11.357"/>
		<path fill="#C41D2C" d="M114.968-97.555c0,3.298-2.747,6.045-6.044,6.045c-3.299,0-6.046-2.747-6.046-6.045
			c0-3.297,2.747-6.044,6.046-6.044C112.22-103.599,114.968-100.852,114.968-97.555"/>
		<path fill="#052855" d="M35.105-100.302l0.916-3.113h5.313c0,0,7.144,0,7.144,7.51c0,6.96-6.961,6.777-6.961,6.777H30.161
			l0.916-3.113h9.89c0,0,3.663,0,3.663-3.847s-3.479-4.213-3.479-4.213H35.105z"/>
		<path fill="#052855" d="M21.185-99.752l3.846-1.648v7.692c0,0-0.365,4.579-6.227,5.129h-70.338c0,0-6.044,0-6.044-6.045v-14.653
			l4.212-1.648v15.753c0,0-0.183,3.113,2.932,3.479H18.62c0,0,2.382-0.183,2.565-2.015V-99.752z"/>
		<rect x="12.393" y="-86.747" fill="#052855" width="3.479" height="3.479"/>
		<rect x="17.704" y="-86.747" fill="#052855" width="3.481" height="3.479"/>
		<path fill="#052855" d="M-62.891-101.584v12.822c0,0,0,5.312-6.411,5.312h-9.523l1.832-3.297h8.059c0,0,2.381-0.184,2.381-2.198
			v-10.624L-62.891-101.584z"/>
		<polygon fill="#052855" points="-54.648,-77.772 -54.648,-63.302 -39.444,-63.302 -39.444,-66.783 -50.618,-66.783 
			-50.618,-69.346 -44.207,-69.346 -44.207,-72.643 -50.618,-72.643 -50.618,-74.841 -39.444,-74.841 -39.444,-77.772 		"/>
		<polygon fill="#052855" points="-35.78,-77.955 -30.652,-77.955 -26.073,-72.827 -21.311,-77.955 -16.548,-77.955 
			-24.241,-70.079 -24.241,-63.484 -28.271,-63.484 -28.271,-69.896 		"/>
		<path fill="#052855" d="M-68.751-77.955c-1.467,0-10.258,0-10.258,0v14.471h9.892c0,0,7.509-0.366,7.509-6.962
			C-61.424-76.857-67.103-77.955-68.751-77.955 M-69.484-66.783c-1.832,0-5.495,0-5.495,0v-8.058h6.044c0,0,3.481,0.183,3.481,3.846
			S-67.653-66.783-69.484-66.783"/>
		<path fill="#052855" d="M-7.94-77.955l-8.243,14.471h4.03l1.649-3.114h8.243l1.832,3.114h4.395l-8.425-14.471H-7.94z
			 M-8.672-69.713l2.381-4.213l2.381,4.213H-8.672z"/>
		<path fill="#052855" d="M15.14-77.955L6.898-63.484h4.03l1.647-3.114h8.243l1.832,3.114h4.397l-8.243-14.471H15.14z
			 M14.407-69.713l2.381-4.213l2.383,4.213H14.407z"/>
		<path fill="#052855" d="M42.616-68.614c0,0,5.128,0.184,5.128-4.944c0,0-0.182-4.579-4.212-4.579H30.892v14.469h3.848v-5.128
			h2.748l5.495,5.128h5.677L42.616-68.614z M34.74-71.727v-3.114h7.509c0,0,1.465,0.183,1.465,1.465
			c0,1.649-1.465,1.649-1.465,1.649H34.74z"/>
		<polygon fill="#C41D2C" points="-74.613,-58.174 -77.544,-58.174 -77.544,-56.524 -75.346,-56.524 -75.346,-55.426 
			-77.544,-55.426 -77.544,-52.494 -79.009,-52.494 -79.009,-59.456 -74.613,-59.456 		"/>
		<path fill="#C41D2C" d="M-69.117-52.494h-1.465l-0.551-1.832h-2.015l-0.549,1.832h-1.283l2.014-6.962h1.832L-69.117-52.494z
			 M-72.049-58.174L-72.049-58.174l-0.731,2.932h1.465L-72.049-58.174z"/>
		<path fill="#C41D2C" d="M-63.256-54.692c-0.367,1.465-1.283,2.381-2.748,2.381c-2.016,0-2.932-1.832-2.932-3.663
			c0-1.832,0.916-3.664,2.932-3.664c1.465,0,2.381,0.916,2.563,2.381l-1.283,0.185c-0.182-0.733-0.365-1.467-1.281-1.467
			c-1.282,0-1.467,1.649-1.467,2.565c0,0.915,0.185,2.564,1.467,2.564c0.916,0,1.099-0.733,1.281-1.467L-63.256-54.692z"/>
		<rect x="-62.524" y="-59.456" fill="#C41D2C" width="1.465" height="6.962"/>
		<polygon fill="#C41D2C" points="-58.677,-53.594 -55.746,-53.594 -55.746,-52.494 -60.143,-52.494 -60.143,-59.456 
			-58.677,-59.456 		"/>
		<rect x="-55.197" y="-59.456" fill="#C41D2C" width="1.465" height="6.962"/>
		<polygon fill="#C41D2C" points="-48.053,-58.174 -49.885,-58.174 -49.885,-52.494 -51.35,-52.494 -51.35,-58.174 -53.181,-58.174 
			-53.181,-59.456 -48.053,-59.456 		"/>
		<rect x="-47.504" y="-59.456" fill="#C41D2C" width="1.465" height="6.962"/>
		<polygon fill="#C41D2C" points="-40.91,-58.174 -43.84,-58.174 -43.84,-56.524 -41.459,-56.524 -41.459,-55.426 -43.84,-55.426 
			-43.84,-53.594 -40.726,-53.594 -40.726,-52.494 -45.305,-52.494 -45.305,-59.456 -40.91,-59.456 		"/>
		<path fill="#C41D2C" d="M-36.513-57.44c-0.183-0.549-0.367-0.915-0.916-0.915s-0.916,0.366-0.916,0.731
			c0,1.467,3.297,0.551,3.297,3.114c0,0.916-0.731,2.198-2.381,2.198c-1.283,0-2.381-0.733-2.565-2.015l1.467-0.184
			c0.182,0.549,0.365,1.1,1.098,1.1c0.549,0,0.916-0.366,0.916-0.916c0-1.467-3.297-0.551-3.297-2.932
			c0-1.282,1.098-2.198,2.198-2.198c1.099,0,2.014,0.733,2.197,2.016H-36.513z"/>
		<polygon fill="#C41D2C" points="-27.173,-59.456 -24.79,-59.456 -24.79,-52.494 -26.257,-52.494 -26.257,-57.989 -26.257,-57.989 
			-27.537,-52.494 -28.82,-52.494 -30.103,-57.989 -30.103,-57.989 -30.103,-52.494 -31.568,-52.494 -31.568,-59.456 
			-29.187,-59.456 -28.089,-54.326 -28.089,-54.326 		"/>
		<path fill="#C41D2C" d="M-18.563-52.494h-1.465l-0.366-1.649h-2.015l-0.366,1.832h-1.465l2.014-6.96h1.832L-18.563-52.494z
			 M-21.493-58.174L-21.493-58.174l-0.733,2.932h1.465L-21.493-58.174z"/>
		<polygon fill="#C41D2C" points="-16.182,-59.456 -13.984,-54.877 -13.984,-54.877 -13.984,-59.456 -12.519,-59.456 
			-12.519,-52.494 -14.167,-52.494 -16.732,-57.989 -16.732,-57.989 -16.732,-52.494 -18.197,-52.494 -18.197,-59.456 		"/>
		<path fill="#C41D2C" d="M-6.291-52.494h-1.465l-0.549-1.832h-2.016l-0.367,1.832h-1.465l2.016-6.962h1.832L-6.291-52.494z
			 M-9.221-58.174L-9.221-58.174l-0.733,2.932h1.465L-9.221-58.174z"/>
		<path fill="#C41D2C" d="M-3.177-54.877v-1.098h2.563v3.48h-0.916l-0.182-0.551c-0.367,0.551-0.916,0.733-1.465,0.733
			c-2.016,0-2.932-1.832-2.932-3.663c0-1.832,0.916-3.664,2.932-3.664c1.465,0,2.381,0.916,2.563,2.198l-1.281,0.183
			c-0.185-0.731-0.367-1.282-1.283-1.282c-1.283,0-1.465,1.649-1.465,2.565c0,0.915,0.182,2.564,1.465,2.564
			c1.098,0,1.283-0.551,1.283-1.467H-3.177z"/>
		<polygon fill="#C41D2C" points="4.699,-58.174 1.769,-58.174 1.769,-56.524 4.15,-56.524 4.15,-55.426 1.769,-55.426 
			1.769,-53.594 4.882,-53.594 4.882,-52.494 0.302,-52.494 0.302,-59.456 4.699,-59.456 		"/>
		<polygon fill="#C41D2C" points="10.012,-59.456 12.393,-59.456 12.393,-52.494 10.928,-52.494 10.928,-57.989 10.928,-57.989 
			9.645,-52.494 8.363,-52.494 7.08,-57.989 7.08,-57.989 7.08,-52.494 5.798,-52.494 5.798,-59.456 7.996,-59.456 9.096,-54.326 
			9.096,-54.326 		"/>
		<polygon fill="#C41D2C" points="17.704,-58.174 14.774,-58.174 14.774,-56.524 17.155,-56.524 17.155,-55.426 14.774,-55.426 
			14.774,-53.594 17.888,-53.594 17.888,-52.494 13.309,-52.494 13.309,-59.456 17.704,-59.456 		"/>
		<polygon fill="#C41D2C" points="20.818,-59.456 22.834,-54.877 22.834,-54.877 22.834,-59.456 24.299,-59.456 24.299,-52.494 
			22.834,-52.494 20.086,-57.989 20.086,-57.989 20.086,-52.494 18.804,-52.494 18.804,-59.456 		"/>
		<polygon fill="#C41D2C" points="29.976,-58.174 28.145,-58.174 28.145,-52.494 26.679,-52.494 26.679,-58.174 24.848,-58.174 
			24.848,-59.456 29.976,-59.456 		"/>
		<polygon fill="#C41D2C" points="34.555,-53.594 37.488,-53.594 37.488,-52.494 33.273,-52.494 33.273,-59.456 34.555,-59.456 		
			"/>
		<polygon fill="#C41D2C" points="39.684,-53.594 42.616,-53.594 42.616,-52.494 38.219,-52.494 38.219,-59.456 39.684,-59.456 		
			"/>
		<path fill="#C41D2C" d="M48.66-54.692c-0.183,1.465-1.282,2.381-2.748,2.381c-2.014,0-2.93-1.832-2.93-3.663
			c0-1.832,0.916-3.664,2.93-3.664c1.465,0,2.381,0.916,2.565,2.381l-1.1,0.185c-0.183-0.733-0.367-1.467-1.283-1.467
			c-1.281,0-1.465,1.649-1.465,2.565c0,0.915,0.185,2.564,1.465,2.564c0.916,0,1.1-0.733,1.283-1.467L48.66-54.692z"/>
	</g>
</g>
</svg>

